<svg viewBox="0 0 40 40" fill="none" xmlns="http://www.w3.org/2000/svg">
<g clip-path="url(#clip0_23_5351)">
<path opacity="0.2" d="M15.5 10V30C15.5 30.3315 15.3683 30.6495 15.1339 30.8839C14.8995 31.1183 14.5815 31.25 14.25 31.25H10.5C10.1685 31.25 9.85054 31.1183 9.61612 30.8839C9.3817 30.6495 9.25 30.3315 9.25 30V10C9.25 9.66848 9.3817 9.35054 9.61612 9.11612C9.85054 8.8817 10.1685 8.75 10.5 8.75H14.25C14.5815 8.75 14.8995 8.8817 15.1339 9.11612C15.3683 9.35054 15.5 9.66848 15.5 10ZM30.5 8.75H26.75C26.4185 8.75 26.1005 8.8817 25.8661 9.11612C25.6317 9.35054 25.5 9.66848 25.5 10V30C25.5 30.3315 25.6317 30.6495 25.8661 30.8839C26.1005 31.1183 26.4185 31.25 26.75 31.25H30.5C30.8315 31.25 31.1495 31.1183 31.3839 30.8839C31.6183 30.6495 31.75 30.3315 31.75 30V10C31.75 9.66848 31.6183 9.35054 31.3839 9.11612C31.1495 8.8817 30.8315 8.75 30.5 8.75Z" fill="#9C27B0"/>
<path d="M39.25 18.75H38V13.75C38 13.087 37.7366 12.4511 37.2678 11.9822C36.7989 11.5134 36.163 11.25 35.5 11.25H33V10C33 9.33696 32.7366 8.70107 32.2678 8.23223C31.7989 7.76339 31.163 7.5 30.5 7.5H26.75C26.087 7.5 25.4511 7.76339 24.9822 8.23223C24.5134 8.70107 24.25 9.33696 24.25 10V18.75H16.75V10C16.75 9.33696 16.4866 8.70107 16.0178 8.23223C15.5489 7.76339 14.913 7.5 14.25 7.5H10.5C9.83696 7.5 9.20107 7.76339 8.73223 8.23223C8.26339 8.70107 8 9.33696 8 10V11.25H5.5C4.83696 11.25 4.20107 11.5134 3.73223 11.9822C3.26339 12.4511 3 13.087 3 13.75V18.75H1.75C1.41848 18.75 1.10054 18.8817 0.866117 19.1161C0.631696 19.3505 0.5 19.6685 0.5 20C0.5 20.3315 0.631696 20.6495 0.866117 20.8839C1.10054 21.1183 1.41848 21.25 1.75 21.25H3V26.25C3 26.913 3.26339 27.5489 3.73223 28.0178C4.20107 28.4866 4.83696 28.75 5.5 28.75H8V30C8 30.663 8.26339 31.2989 8.73223 31.7678C9.20107 32.2366 9.83696 32.5 10.5 32.5H14.25C14.913 32.5 15.5489 32.2366 16.0178 31.7678C16.4866 31.2989 16.75 30.663 16.75 30V21.25H24.25V30C24.25 30.663 24.5134 31.2989 24.9822 31.7678C25.4511 32.2366 26.087 32.5 26.75 32.5H30.5C31.163 32.5 31.7989 32.2366 32.2678 31.7678C32.7366 31.2989 33 30.663 33 30V28.75H35.5C36.163 28.75 36.7989 28.4866 37.2678 28.0178C37.7366 27.5489 38 26.913 38 26.25V21.25H39.25C39.5815 21.25 39.8995 21.1183 40.1339 20.8839C40.3683 20.6495 40.5 20.3315 40.5 20C40.5 19.6685 40.3683 19.3505 40.1339 19.1161C39.8995 18.8817 39.5815 18.75 39.25 18.75ZM5.5 26.25V13.75H8V26.25H5.5ZM14.25 30H10.5V10H14.25V30ZM30.5 30H26.75V10H30.5V27.4734C30.5 27.4828 30.5 27.4906 30.5 27.5C30.5 27.5094 30.5 27.5187 30.5 27.5266V30ZM35.5 26.25H33V13.75H35.5V26.25Z" fill="#9C27B0"/>
</g>
<defs>
<clipPath id="clip0_23_5351">
<rect width="40" height="40" fill="white" transform="translate(0.5)"/>
</clipPath>
</defs>
</svg>
